<svg width="1171" height="487" fill="none" xmlns="http://www.w3.org/2000/svg"><g clip-path="url(#clip0)" id="background"><path id="Vector" d="M83.9392 422.714l-26.8496-1.792 8.9499 40.301 30.4293-12.538-12.5296-25.971z" fill="#FFB9B9"/><path id="Vector_2" d="M330.062 347.486l-62.649-60.899-35.8 27.764-70.705 85.078 8.055 12.538 85.919-58.212 58.175 76.123 55.49-27.762-38.485-54.63z" fill="#2F2E41"/><path id="Vector_3" opacity=".1" d="M330.062 347.486l-62.649-60.899-35.8 27.764-70.705 85.078 8.055 12.538 85.919-58.212 58.175 76.123 55.49-27.762-38.485-54.63z" fill="#000"/><path id="Vector_4" d="M335.432 387.787l-8.055 6.269-65.334-22.389-15.215-6.269-30.43 6.269s0-25.076 28.64-24.181l29.535 7.165 34.905 2.686 25.954 30.45z" fill="#FFB9B9"/><path id="Vector_5" d="M393.607 454.059l-19.69 12.538h-23.27l-108.294-40.301-158.4138 28.658-4.4755-34.032 144.9893-63.584 127.09 42.091 42.064 54.63z" fill="#2F2E41"/><path id="Vector_6" d="M266.518 294.648l-13.425 2.687-2.926-3.416c-2.316-2.703-3.783-6.031-4.218-9.565-.435-3.535.182-7.119 1.774-10.304l37.59-49.256s10.74-24.18 27.744-14.329c17.005 9.851-14.319 25.971-14.319 25.971l-18.795 29.554 1.79 15.224-15.215 13.434z" fill="#FFB9B9"/><path id="Vector_7" d="M351.542 236.436c19.278 0 34.905-15.637 34.905-34.927s-15.627-34.927-34.905-34.927c-19.277 0-34.905 15.637-34.905 34.927s15.628 34.927 34.905 34.927z" fill="#FFB9B9"/><path id="Vector_8" d="M335.88 227.033l16.11 38.509 38.484-16.12s-12.53-30.449-12.53-31.345c0-.896-42.064 8.956-42.064 8.956z" fill="#FFB9B9"/><path id="Vector_9" d="M441.856 340.958c0 21.079-3.32 42.026-9.836 62.071l-2.613 8.043-12.53 57.316-13.425 3.582-9.845-12.538-19.69-14.329-14.32-23.285-12.279-20.472-3.831-6.395-13.425-67.167-51.014-28.658-17.005-2.687 3.58-9.851 15.215-20.598 15.215-1.791 4.474-3.583 3.58 1.792 14.32-8.061 4.475 1.792 26.17 2.435 15.895-3.331 22.858-12.278 9.362 1.531 32.22 26.867c8.236 22.277 12.452 45.842 12.449 69.595z" fill="#1A8375"/><path id="Vector_10" d="M65.3311 436.581s8.0162-13.595 4.6304-15.182c-3.3859-1.587-17.7652-7.914-17.7652-7.914l-21.0869-6.993s-30.427141-45.25-31.0950222-5.9C-.653503 439.942 22.1691 449.401 22.1691 449.401s20.3549 43.834 31.8851 36.844c11.5302-6.99 23.068-30.717 23.068-30.717s-20.7926-11.185-11.7911-18.947z" fill="#2F2E41"/><path id="Vector_11" opacity=".1" d="M432.091 333.157l-34.01 22.389-50.763 45.799-3.831-6.394-10.74-53.734h2.685l27.746-51.046 68.913 42.986z" fill="#000"/><path id="Vector_12" d="M363.178 284.797l-27.746 51.047h-9.844l-6.265 17.911-14.32 3.583 38.484 42.091 54.594-49.256 34.01-22.39-68.913-42.986z" fill="#1A8375"/><path id="Vector_13" d="M324.393 175.539l-3.781 1.456c-.582-.394-1.079-.9-1.463-1.489-.384-.589-.646-1.248-.772-1.94-.125-.692-.112-1.401.04-2.088.152-.686.439-1.335.845-1.909l-6.989-.327c4.486-5.979 10.19-10.936 16.735-14.544 6.544-3.608 13.779-5.785 21.227-6.386 7.448-.6 14.938.388 21.975 2.901 7.037 2.513 13.461 6.492 18.847 11.675.318-1.097 3.786 1.037 5.203 3.2.475-1.784 3.728 6.841 4.878 12.939.532-2.031 2.58 1.247.786 4.392 1.137-.167 1.65 2.743.77 4.365 1.244-.585 1.034 2.889-.314 5.21 1.774-.158-13.994 24.33-20.378 38.641-1.854-8.523-3.938-17.498-9.916-23.847-1.016-1.079-2.128-2.062-3.239-3.043l-6.008-5.307c-6.987-6.17-13.342-13.786-22.649-16.093-6.396-1.585-10.44-1.942-6.954-9.154-3.149 1.315-6.09 3.27-9.268 4.492.043-1.008.487-2.136.425-3.144z" fill="#2F2E41"/><path id="Vector_14" d="M368.995 211.808c3.46 0 6.264-2.807 6.264-6.269s-2.804-6.269-6.264-6.269c-3.461 0-6.265 2.807-6.265 6.269s2.804 6.269 6.265 6.269z" fill="#FFB9B9"/><g id="clip"><path id="clip-0-2" d="M223.329 64.6367h-30.291v30.3102h30.291V64.6367z" fill="#00DBBF"/><path id="clip-0-1" d="M241.72 77.6268h-36.782V40.8215h36.782v36.8053zm-35.183-1.6002h33.584V42.4218h-33.584v33.6048z" fill="#3F3D56"/></g><g id="clip-1"><path id="clip-1-2" d="M87.9883 187.463l-8.3172-29.145-29.1266 8.323 8.3172 29.145 29.1266-8.323z" fill="#00DBBF"/><path id="clip-1-1" d="M80.5552 208.725l-10.0995-35.39 35.3683-10.106 10.099 35.391-35.3678 10.105zm-8.1226-34.291l9.2212 32.313 32.2922-9.227-9.221-32.313-32.2924 9.227z" fill="#3F3D56"/></g><g id="clip-2"><path id="clip-2-2" d="M80.4605 51.7188L101.143 29.574 79.0124 8.87821 58.3299 31.023l22.1306 20.6958z" fill="#00DBBF"/><path id="clip-2-1" d="M58.4187 56.2943l25.1145-26.8901 26.8728 25.1306-25.1144 26.8901-26.8729-25.1306zm25.191-24.6283L60.679 56.2178l24.5362 22.9453 22.9308-24.5519L83.6097 31.666z" fill="#3F3D56"/></g><path id="Vector_15" d="M1110.19 5.80476H828.738V.00000763H701.115V5.80476H418.5c-2.5 0-4.976.49275-7.286 1.45013-2.31.95738-4.409 2.36063-6.176 4.12961-1.768 1.769-3.171 3.8691-4.127 6.1805-.957 2.3113-1.45 4.7885-1.45 7.2903V410.501c0 2.502.493 4.979 1.45 7.29.956 2.312 2.359 4.412 4.127 6.181 1.767 1.769 3.866 3.172 6.176 4.13 2.31.957 4.785 1.45 7.286 1.45h691.69c5.05 0 9.9-2.007 13.47-5.58 3.57-3.573 5.57-8.418 5.57-13.471V24.8553c0-2.5018-.49-4.979-1.45-7.2903-.95-2.3114-2.36-4.4115-4.12-6.1805-1.77-1.76898-3.87-3.17223-6.18-4.12961-2.31-.95738-4.79-1.45013-7.29-1.45013z" fill="#3F3D56"/><path id="Vector_16" d="M1103.71 39.4723H424.986V422.586h678.724V39.4723z" fill="#00DBBF"/><path id="Vector_17" d="M763.767 29.0238c3.844 0 6.961-3.1187 6.961-6.9657 0-3.8471-3.117-6.9657-6.961-6.9657-3.845 0-6.961 3.1186-6.961 6.9657 0 3.847 3.116 6.9657 6.961 6.9657z" fill="#00DBBF"/><path id="Vector_18" opacity=".1" d="M909.605 422.586H424.986V39.4726L909.605 422.586z" fill="#000"/><g id="circle"><path id="circle-2" d="M531.186 393.917c36.031 0 65.24-29.228 65.24-65.282 0-36.055-29.209-65.283-65.24-65.283-36.032 0-65.241 29.228-65.241 65.283 0 36.054 29.209 65.282 65.241 65.282z" fill="#F2F2F2"/><path id="circle-1" d="M545.709 377.701c-16.051 0-31.741-4.762-45.086-13.685-13.346-8.923-23.748-21.606-29.89-36.444-6.142-14.839-7.749-31.166-4.618-46.918 3.131-15.753 10.86-30.222 22.21-41.579 11.349-11.357 25.809-19.091 41.552-22.224 15.742-3.133 32.059-1.525 46.888 4.621 14.829 6.146 27.503 16.555 36.42 29.909 8.918 13.354 13.677 29.054 13.677 45.115-.024 21.529-8.582 42.17-23.796 57.394-15.214 15.223-35.841 23.787-57.357 23.811zm0-161.349c-15.841 0-31.326 4.701-44.497 13.507-13.171 8.806-23.437 21.323-29.499 35.967-6.062 14.645-7.648 30.759-4.558 46.305 3.091 15.547 10.719 29.827 21.92 41.035 11.201 11.208 25.472 18.841 41.009 21.934 15.536 3.092 31.64 1.505 46.275-4.561 14.635-6.066 27.144-16.338 35.944-29.518 8.801-13.179 13.498-28.674 13.498-44.525-.024-21.248-8.47-41.619-23.485-56.644-15.015-15.024-35.373-23.476-56.607-23.5z" fill="#3F3D56"/></g><path id="Vector_19" d="M985.531 246.089h-63.4v13.256h63.4v-13.256z" fill="#3F3D56"/><g id="bar" fill="#3F3D56"><path id="bar-5" d="M1062.18 142.879H845.483v5.682h216.697v-5.682z"/><path id="bar4" d="M1062.18 160.87H845.483v5.681h216.697v-5.681z"/><path id="bar-3" d="M1062.18 178.86H845.483v5.682h216.697v-5.682z"/><path id="bar-2" d="M1062.18 196.851H845.483v5.681h216.697v-5.681z"/><path id="bar-1" d="M1062.18 214.842H845.483v5.681h216.697v-5.681z"/></g><path id="Vector_20" d="M1062.18 47.2449h-26.5v26.5125h26.5V47.2449z" fill="#F2F2F2"/><path id="Vector_21" d="M1074.48 86.0668h-32.17V53.873h32.17v32.1938zm-30.77-1.3997h29.37V55.2728h-29.37v29.3943z" fill="#3F3D56"/><path id="Vector_22" d="M1148.29 415.62h-66.24v-4.775c0-.125-.02-.248-.07-.363-.05-.114-.12-.219-.21-.307-.08-.088-.19-.157-.3-.205-.12-.048-.24-.072-.37-.072h-22.71c-.12 0-.24.024-.36.072-.11.048-.22.117-.31.205-.08.088-.15.193-.2.307-.05.115-.07.238-.07.363v4.775h-14.2v-4.775c0-.125-.02-.248-.07-.363-.05-.114-.12-.219-.2-.307-.09-.088-.2-.157-.31-.205-.12-.048-.24-.072-.36-.072h-22.71c-.13 0-.25.024-.37.072-.11.048-.21.117-.3.205-.09.088-.16.193-.21.307-.04.115-.07.238-.07.363v4.775h-14.19v-4.775c0-.125-.03-.248-.08-.363-.04-.114-.11-.219-.2-.307-.09-.088-.19-.157-.31-.205-.11-.048-.24-.072-.36-.072H980.8c-.124 0-.247.024-.362.072-.115.048-.219.117-.307.205-.088.088-.158.193-.205.307-.048.115-.072.238-.072.363v4.775H965.66v-4.775c0-.125-.025-.248-.072-.363-.048-.114-.118-.219-.205-.307-.088-.088-.193-.157-.307-.205-.115-.048-.238-.072-.363-.072h-22.71c-.124 0-.247.024-.362.072-.115.048-.219.117-.307.205-.088.088-.158.193-.205.307-.048.115-.072.238-.072.363v4.775h-14.194v-4.775c0-.125-.025-.248-.072-.363-.048-.114-.118-.219-.206-.307-.087-.088-.192-.157-.307-.205-.114-.048-.237-.072-.362-.072h-22.71c-.124 0-.247.024-.362.072-.115.048-.219.117-.307.205-.088.088-.158.193-.205.307-.048.115-.072.238-.072.363v4.775h-14.194v-4.775c0-.125-.025-.248-.073-.363-.047-.114-.117-.219-.205-.307-.087-.088-.192-.157-.307-.205-.114-.048-.237-.072-.362-.072h-22.71c-.124 0-.248.024-.362.072-.115.048-.219.117-.307.205-.088.088-.158.193-.205.307-.048.115-.072.238-.072.363v4.775h-14.194v-4.775c0-.125-.025-.248-.073-.363-.047-.114-.117-.219-.205-.307-.087-.088-.192-.157-.307-.205-.114-.048-.237-.072-.362-.072H670.424c-.125 0-.248.024-.363.072-.114.048-.219.117-.307.205-.087.088-.157.193-.205.307-.047.115-.072.238-.072.363v4.775h-14.194v-4.775c0-.125-.024-.248-.072-.363-.047-.114-.117-.219-.205-.307-.088-.088-.192-.157-.307-.205-.115-.048-.238-.072-.362-.072h-22.71c-.125 0-.248.024-.363.072-.114.048-.219.117-.307.205-.087.088-.157.193-.205.307-.047.115-.072.238-.072.363v4.775h-14.194v-4.775c0-.125-.024-.248-.072-.363-.047-.114-.117-.219-.205-.307-.088-.088-.192-.157-.307-.205-.115-.048-.238-.072-.362-.072h-22.711c-.124 0-.247.024-.362.072-.115.048-.219.117-.307.205-.088.088-.157.193-.205.307-.047.115-.072.238-.072.363v4.775h-14.194v-4.775c0-.125-.024-.248-.072-.363-.047-.114-.117-.219-.205-.307-.088-.088-.192-.157-.307-.205-.115-.048-.238-.072-.362-.072h-22.711c-.124 0-.247.024-.362.072-.115.048-.219.117-.307.205-.088.088-.157.193-.205.307-.047.115-.072.238-.072.363v4.775h-14.194v-4.775c0-.125-.024-.248-.072-.363-.047-.114-.117-.219-.205-.307-.088-.088-.192-.157-.307-.205-.115-.048-.238-.072-.362-.072h-22.711c-.124 0-.247.024-.362.072-.115.048-.219.117-.307.205-.088.088-.157.193-.205.307-.047.115-.072.238-.072.363v4.775h-14.194v-4.775c0-.125-.024-.248-.072-.363-.048-.114-.117-.219-.205-.307-.088-.088-.192-.157-.307-.205-.115-.048-.238-.072-.362-.072h-22.711c-.124 0-.247.024-.362.072-.115.048-.219.117-.307.205-.088.088-.157.193-.205.307-.048.115-.072.238-.072.363v4.775h-14.194v-4.775c0-.125-.025-.248-.072-.363-.048-.114-.117-.219-.205-.307-.088-.088-.192-.157-.307-.205-.115-.048-.238-.072-.362-.072h-22.711c-.124 0-.247.024-.362.072-.115.048-.219.117-.307.205-.088.088-.157.193-.205.307-.048.115-.072.238-.072.363v4.775h-43.528c-6.024 0-11.8 2.395-16.059 6.656-4.259 4.262-6.652 10.042-6.652 16.069v10.276c0 6.027 2.393 11.807 6.652 16.069 4.259 4.262 10.035 6.656 16.059 6.656h755.123c6.02 0 11.8-2.394 16.06-6.656 4.26-4.262 6.65-10.042 6.65-16.069v-10.276c0-6.027-2.39-11.807-6.65-16.069-4.26-4.261-10.04-6.656-16.06-6.656z" fill="#3F3D56"/></g><defs><clipPath id="clip0"><path fill="#fff" d="M0 0h1171v487H0z"/></clipPath></defs></svg>